ISO-10303-21;
HEADER;
/* Generated by software containing ST-Developer
 * from STEP Tools, Inc. (www.steptools.com) 
 */

FILE_DESCRIPTION(
/* description */ (''),
/* implementation_level */ '2;1');

FILE_NAME(
/* name */ '1.3 Inch 1.3.step',
/* time_stamp */ '2026-08-26T21:33:09-04:00',
/* author */ (''),
/* organization */ (''),
/* preprocessor_version */ 'ST-DEVELOPER v20.1',
/* originating_system */ 'Autodesk Translation Framework v15.8.0.0',
/* authorisation */ '');

FILE_SCHEMA (('AUTOMOTIVE_DESIGN { 1 0 10303 214 3 1 1 }'));
ENDSEC;

DATA;
#10=MECHANICAL_DESIGN_GEOMETRIC_PRESENTATION_REPRESENTATION('',(#13),#754);
#11=SHAPE_REPRESENTATION_RELATIONSHIP('SRR','None',#761,#12);
#12=ADVANCED_BREP_SHAPE_REPRESENTATION('',(#14),#753);
#13=STYLED_ITEM('',(#770),#14);
#14=MANIFOLD_SOLID_BREP('Body1',#450);
#15=FACE_BOUND('',#114,.T.);
#16=FACE_BOUND('',#115,.T.);
#17=FACE_BOUND('',#116,.T.);
#18=FACE_BOUND('',#117,.T.);
#19=FACE_BOUND('',#118,.T.);
#20=FACE_BOUND('',#119,.T.);
#21=FACE_BOUND('',#120,.T.);
#22=FACE_BOUND('',#121,.T.);
#23=FACE_BOUND('',#122,.T.);
#24=FACE_BOUND('',#123,.T.);
#25=FACE_BOUND('',#124,.T.);
#26=FACE_BOUND('',#125,.T.);
#27=FACE_BOUND('',#127,.T.);
#28=FACE_BOUND('',#128,.T.);
#29=FACE_BOUND('',#129,.T.);
#30=FACE_BOUND('',#130,.T.);
#31=FACE_BOUND('',#131,.T.);
#32=FACE_BOUND('',#132,.T.);
#33=FACE_BOUND('',#133,.T.);
#34=FACE_BOUND('',#134,.T.);
#35=FACE_BOUND('',#135,.T.);
#36=FACE_BOUND('',#136,.T.);
#37=FACE_BOUND('',#137,.T.);
#38=CIRCLE('',#470,0.635);
#39=CIRCLE('',#471,0.635);
#40=CIRCLE('',#473,0.635);
#41=CIRCLE('',#474,0.635);
#42=CIRCLE('',#476,0.635);
#43=CIRCLE('',#477,0.635);
#44=CIRCLE('',#479,0.635);
#45=CIRCLE('',#480,0.635);
#46=CIRCLE('',#482,0.635);
#47=CIRCLE('',#483,0.635);
#48=CIRCLE('',#485,0.635);
#49=CIRCLE('',#486,0.635);
#50=CIRCLE('',#488,0.635);
#51=CIRCLE('',#489,0.635);
#52=CIRCLE('',#491,1.);
#53=CIRCLE('',#492,1.);
#54=CIRCLE('',#494,1.);
#55=CIRCLE('',#495,1.);
#56=CIRCLE('',#497,1.);
#57=CIRCLE('',#498,1.);
#58=CIRCLE('',#500,1.);
#59=CIRCLE('',#501,1.);
#60=CYLINDRICAL_SURFACE('',#469,0.635);
#61=CYLINDRICAL_SURFACE('',#472,0.635);
#62=CYLINDRICAL_SURFACE('',#475,0.635);
#63=CYLINDRICAL_SURFACE('',#478,0.635);
#64=CYLINDRICAL_SURFACE('',#481,0.635);
#65=CYLINDRICAL_SURFACE('',#484,0.635);
#66=CYLINDRICAL_SURFACE('',#487,0.635);
#67=CYLINDRICAL_SURFACE('',#490,1.);
#68=CYLINDRICAL_SURFACE('',#493,1.);
#69=CYLINDRICAL_SURFACE('',#496,1.);
#70=CYLINDRICAL_SURFACE('',#499,1.);
#71=FACE_OUTER_BOUND('',#93,.T.);
#72=FACE_OUTER_BOUND('',#94,.T.);
#73=FACE_OUTER_BOUND('',#95,.T.);
#74=FACE_OUTER_BOUND('',#96,.T.);
#75=FACE_OUTER_BOUND('',#97,.T.);
#76=FACE_OUTER_BOUND('',#98,.T.);
#77=FACE_OUTER_BOUND('',#99,.T.);
#78=FACE_OUTER_BOUND('',#100,.T.);
#79=FACE_OUTER_BOUND('',#101,.T.);
#80=FACE_OUTER_BOUND('',#102,.T.);
#81=FACE_OUTER_BOUND('',#103,.T.);
#82=FACE_OUTER_BOUND('',#104,.T.);
#83=FACE_OUTER_BOUND('',#105,.T.);
#84=FACE_OUTER_BOUND('',#106,.T.);
#85=FACE_OUTER_BOUND('',#107,.T.);
#86=FACE_OUTER_BOUND('',#108,.T.);
#87=FACE_OUTER_BOUND('',#109,.T.);
#88=FACE_OUTER_BOUND('',#110,.T.);
#89=FACE_OUTER_BOUND('',#111,.T.);
#90=FACE_OUTER_BOUND('',#112,.T.);
#91=FACE_OUTER_BOUND('',#113,.T.);
#92=FACE_OUTER_BOUND('',#126,.T.);
#93=EDGE_LOOP('',(#303,#304,#305,#306));
#94=EDGE_LOOP('',(#307,#308,#309,#310));
#95=EDGE_LOOP('',(#311,#312,#313,#314));
#96=EDGE_LOOP('',(#315,#316,#317,#318));
#97=EDGE_LOOP('',(#319,#320,#321,#322));
#98=EDGE_LOOP('',(#323,#324,#325,#326));
#99=EDGE_LOOP('',(#327,#328,#329,#330));
#100=EDGE_LOOP('',(#331,#332,#333,#334));
#101=EDGE_LOOP('',(#335,#336,#337,#338));
#102=EDGE_LOOP('',(#339,#340,#341,#342));
#103=EDGE_LOOP('',(#343,#344,#345,#346));
#104=EDGE_LOOP('',(#347,#348,#349,#350));
#105=EDGE_LOOP('',(#351,#352,#353,#354));
#106=EDGE_LOOP('',(#355,#356,#357,#358));
#107=EDGE_LOOP('',(#359,#360,#361,#362));
#108=EDGE_LOOP('',(#363,#364,#365,#366));
#109=EDGE_LOOP('',(#367,#368,#369,#370));
#110=EDGE_LOOP('',(#371,#372,#373,#374));
#111=EDGE_LOOP('',(#375,#376,#377,#378));
#112=EDGE_LOOP('',(#379,#380,#381,#382));
#113=EDGE_LOOP('',(#383,#384,#385,#386));
#114=EDGE_LOOP('',(#387));
#115=EDGE_LOOP('',(#388));
#116=EDGE_LOOP('',(#389));
#117=EDGE_LOOP('',(#390));
#118=EDGE_LOOP('',(#391));
#119=EDGE_LOOP('',(#392));
#120=EDGE_LOOP('',(#393));
#121=EDGE_LOOP('',(#394));
#122=EDGE_LOOP('',(#395));
#123=EDGE_LOOP('',(#396));
#124=EDGE_LOOP('',(#397));
#125=EDGE_LOOP('',(#398,#399,#400,#401));
#126=EDGE_LOOP('',(#402,#403,#404,#405));
#127=EDGE_LOOP('',(#406));
#128=EDGE_LOOP('',(#407));
#129=EDGE_LOOP('',(#408));
#130=EDGE_LOOP('',(#409));
#131=EDGE_LOOP('',(#410));
#132=EDGE_LOOP('',(#411));
#133=EDGE_LOOP('',(#412));
#134=EDGE_LOOP('',(#413));
#135=EDGE_LOOP('',(#414));
#136=EDGE_LOOP('',(#415));
#137=EDGE_LOOP('',(#416));
#138=LINE('',#637,#173);
#139=LINE('',#639,#174);
#140=LINE('',#641,#175);
#141=LINE('',#642,#176);
#142=LINE('',#645,#177);
#143=LINE('',#647,#178);
#144=LINE('',#648,#179);
#145=LINE('',#651,#180);
#146=LINE('',#653,#181);
#147=LINE('',#654,#182);
#148=LINE('',#656,#183);
#149=LINE('',#657,#184);
#150=LINE('',#663,#185);
#151=LINE('',#669,#186);
#152=LINE('',#675,#187);
#153=LINE('',#681,#188);
#154=LINE('',#687,#189);
#155=LINE('',#693,#190);
#156=LINE('',#699,#191);
#157=LINE('',#705,#192);
#158=LINE('',#711,#193);
#159=LINE('',#717,#194);
#160=LINE('',#723,#195);
#161=LINE('',#728,#196);
#162=LINE('',#730,#197);
#163=LINE('',#732,#198);
#164=LINE('',#733,#199);
#165=LINE('',#736,#200);
#166=LINE('',#738,#201);
#167=LINE('',#739,#202);
#168=LINE('',#742,#203);
#169=LINE('',#744,#204);
#170=LINE('',#745,#205);
#171=LINE('',#747,#206);
#172=LINE('',#748,#207);
#173=VECTOR('',#512,10.);
#174=VECTOR('',#513,10.);
#175=VECTOR('',#514,10.);
#176=VECTOR('',#515,10.);
#177=VECTOR('',#518,10.);
#178=VECTOR('',#519,10.);
#179=VECTOR('',#520,10.);
#180=VECTOR('',#523,10.);
#181=VECTOR('',#524,10.);
#182=VECTOR('',#525,10.);
#183=VECTOR('',#528,10.);
#184=VECTOR('',#529,10.);
#185=VECTOR('',#536,0.635);
#186=VECTOR('',#543,0.635);
#187=VECTOR('',#550,0.635);
#188=VECTOR('',#557,0.635);
#189=VECTOR('',#564,0.635);
#190=VECTOR('',#571,0.635);
#191=VECTOR('',#578,0.635);
#192=VECTOR('',#585,1.);
#193=VECTOR('',#592,1.);
#194=VECTOR('',#599,1.);
#195=VECTOR('',#606,1.);
#196=VECTOR('',#611,10.);
#197=VECTOR('',#612,10.);
#198=VECTOR('',#613,10.);
#199=VECTOR('',#614,10.);
#200=VECTOR('',#617,10.);
#201=VECTOR('',#618,10.);
#202=VECTOR('',#619,10.);
#203=VECTOR('',#622,10.);
#204=VECTOR('',#623,10.);
#205=VECTOR('',#624,10.);
#206=VECTOR('',#627,10.);
#207=VECTOR('',#628,10.);
#208=VERTEX_POINT('',#635);
#209=VERTEX_POINT('',#636);
#210=VERTEX_POINT('',#638);
#211=VERTEX_POINT('',#640);
#212=VERTEX_POINT('',#644);
#213=VERTEX_POINT('',#646);
#214=VERTEX_POINT('',#650);
#215=VERTEX_POINT('',#652);
#216=VERTEX_POINT('',#660);
#217=VERTEX_POINT('',#662);
#218=VERTEX_POINT('',#666);
#219=VERTEX_POINT('',#668);
#220=VERTEX_POINT('',#672);
#221=VERTEX_POINT('',#674);
#222=VERTEX_POINT('',#678);
#223=VERTEX_POINT('',#680);
#224=VERTEX_POINT('',#684);
#225=VERTEX_POINT('',#686);
#226=VERTEX_POINT('',#690);
#227=VERTEX_POINT('',#692);
#228=VERTEX_POINT('',#696);
#229=VERTEX_POINT('',#698);
#230=VERTEX_POINT('',#702);
#231=VERTEX_POINT('',#704);
#232=VERTEX_POINT('',#708);
#233=VERTEX_POINT('',#710);
#234=VERTEX_POINT('',#714);
#235=VERTEX_POINT('',#716);
#236=VERTEX_POINT('',#720);
#237=VERTEX_POINT('',#722);
#238=VERTEX_POINT('',#726);
#239=VERTEX_POINT('',#727);
#240=VERTEX_POINT('',#729);
#241=VERTEX_POINT('',#731);
#242=VERTEX_POINT('',#735);
#243=VERTEX_POINT('',#737);
#244=VERTEX_POINT('',#741);
#245=VERTEX_POINT('',#743);
#246=EDGE_CURVE('',#208,#209,#138,.T.);
#247=EDGE_CURVE('',#208,#210,#139,.T.);
#248=EDGE_CURVE('',#211,#210,#140,.T.);
#249=EDGE_CURVE('',#209,#211,#141,.T.);
#250=EDGE_CURVE('',#209,#212,#142,.T.);
#251=EDGE_CURVE('',#213,#211,#143,.T.);
#252=EDGE_CURVE('',#212,#213,#144,.T.);
#253=EDGE_CURVE('',#212,#214,#145,.T.);
#254=EDGE_CURVE('',#215,#213,#146,.T.);
#255=EDGE_CURVE('',#214,#215,#147,.T.);
#256=EDGE_CURVE('',#214,#208,#148,.T.);
#257=EDGE_CURVE('',#210,#215,#149,.T.);
#258=EDGE_CURVE('',#216,#216,#38,.T.);
#259=EDGE_CURVE('',#216,#217,#150,.T.);
#260=EDGE_CURVE('',#217,#217,#39,.T.);
#261=EDGE_CURVE('',#218,#218,#40,.T.);
#262=EDGE_CURVE('',#218,#219,#151,.T.);
#263=EDGE_CURVE('',#219,#219,#41,.T.);
#264=EDGE_CURVE('',#220,#220,#42,.T.);
#265=EDGE_CURVE('',#220,#221,#152,.T.);
#266=EDGE_CURVE('',#221,#221,#43,.T.);
#267=EDGE_CURVE('',#222,#222,#44,.T.);
#268=EDGE_CURVE('',#222,#223,#153,.T.);
#269=EDGE_CURVE('',#223,#223,#45,.T.);
#270=EDGE_CURVE('',#224,#224,#46,.T.);
#271=EDGE_CURVE('',#224,#225,#154,.T.);
#272=EDGE_CURVE('',#225,#225,#47,.T.);
#273=EDGE_CURVE('',#226,#226,#48,.T.);
#274=EDGE_CURVE('',#226,#227,#155,.T.);
#275=EDGE_CURVE('',#227,#227,#49,.T.);
#276=EDGE_CURVE('',#228,#228,#50,.T.);
#277=EDGE_CURVE('',#228,#229,#156,.T.);
#278=EDGE_CURVE('',#229,#229,#51,.T.);
#279=EDGE_CURVE('',#230,#230,#52,.T.);
#280=EDGE_CURVE('',#230,#231,#157,.T.);
#281=EDGE_CURVE('',#231,#231,#53,.T.);
#282=EDGE_CURVE('',#232,#232,#54,.T.);
#283=EDGE_CURVE('',#232,#233,#158,.T.);
#284=EDGE_CURVE('',#233,#233,#55,.T.);
#285=EDGE_CURVE('',#234,#234,#56,.T.);
#286=EDGE_CURVE('',#234,#235,#159,.T.);
#287=EDGE_CURVE('',#235,#235,#57,.T.);
#288=EDGE_CURVE('',#236,#236,#58,.T.);
#289=EDGE_CURVE('',#236,#237,#160,.T.);
#290=EDGE_CURVE('',#237,#237,#59,.T.);
#291=EDGE_CURVE('',#238,#239,#161,.T.);
#292=EDGE_CURVE('',#239,#240,#162,.T.);
#293=EDGE_CURVE('',#241,#240,#163,.T.);
#294=EDGE_CURVE('',#238,#241,#164,.T.);
#295=EDGE_CURVE('',#242,#238,#165,.T.);
#296=EDGE_CURVE('',#243,#241,#166,.T.);
#297=EDGE_CURVE('',#242,#243,#167,.T.);
#298=EDGE_CURVE('',#244,#242,#168,.T.);
#299=EDGE_CURVE('',#245,#243,#169,.T.);
#300=EDGE_CURVE('',#244,#245,#170,.T.);
#301=EDGE_CURVE('',#239,#244,#171,.T.);
#302=EDGE_CURVE('',#240,#245,#172,.T.);
#303=ORIENTED_EDGE('',*,*,#246,.F.);
#304=ORIENTED_EDGE('',*,*,#247,.T.);
#305=ORIENTED_EDGE('',*,*,#248,.F.);
#306=ORIENTED_EDGE('',*,*,#249,.F.);
#307=ORIENTED_EDGE('',*,*,#250,.F.);
#308=ORIENTED_EDGE('',*,*,#249,.T.);
#309=ORIENTED_EDGE('',*,*,#251,.F.);
#310=ORIENTED_EDGE('',*,*,#252,.F.);
#311=ORIENTED_EDGE('',*,*,#253,.F.);
#312=ORIENTED_EDGE('',*,*,#252,.T.);
#313=ORIENTED_EDGE('',*,*,#254,.F.);
#314=ORIENTED_EDGE('',*,*,#255,.F.);
#315=ORIENTED_EDGE('',*,*,#256,.F.);
#316=ORIENTED_EDGE('',*,*,#255,.T.);
#317=ORIENTED_EDGE('',*,*,#257,.F.);
#318=ORIENTED_EDGE('',*,*,#247,.F.);
#319=ORIENTED_EDGE('',*,*,#257,.T.);
#320=ORIENTED_EDGE('',*,*,#254,.T.);
#321=ORIENTED_EDGE('',*,*,#251,.T.);
#322=ORIENTED_EDGE('',*,*,#248,.T.);
#323=ORIENTED_EDGE('',*,*,#258,.F.);
#324=ORIENTED_EDGE('',*,*,#259,.T.);
#325=ORIENTED_EDGE('',*,*,#260,.F.);
#326=ORIENTED_EDGE('',*,*,#259,.F.);
#327=ORIENTED_EDGE('',*,*,#261,.F.);
#328=ORIENTED_EDGE('',*,*,#262,.T.);
#329=ORIENTED_EDGE('',*,*,#263,.F.);
#330=ORIENTED_EDGE('',*,*,#262,.F.);
#331=ORIENTED_EDGE('',*,*,#264,.F.);
#332=ORIENTED_EDGE('',*,*,#265,.T.);
#333=ORIENTED_EDGE('',*,*,#266,.F.);
#334=ORIENTED_EDGE('',*,*,#265,.F.);
#335=ORIENTED_EDGE('',*,*,#267,.F.);
#336=ORIENTED_EDGE('',*,*,#268,.T.);
#337=ORIENTED_EDGE('',*,*,#269,.F.);
#338=ORIENTED_EDGE('',*,*,#268,.F.);
#339=ORIENTED_EDGE('',*,*,#270,.F.);
#340=ORIENTED_EDGE('',*,*,#271,.T.);
#341=ORIENTED_EDGE('',*,*,#272,.F.);
#342=ORIENTED_EDGE('',*,*,#271,.F.);
#343=ORIENTED_EDGE('',*,*,#273,.F.);
#344=ORIENTED_EDGE('',*,*,#274,.T.);
#345=ORIENTED_EDGE('',*,*,#275,.F.);
#346=ORIENTED_EDGE('',*,*,#274,.F.);
#347=ORIENTED_EDGE('',*,*,#276,.F.);
#348=ORIENTED_EDGE('',*,*,#277,.T.);
#349=ORIENTED_EDGE('',*,*,#278,.F.);
#350=ORIENTED_EDGE('',*,*,#277,.F.);
#351=ORIENTED_EDGE('',*,*,#279,.F.);
#352=ORIENTED_EDGE('',*,*,#280,.T.);
#353=ORIENTED_EDGE('',*,*,#281,.F.);
#354=ORIENTED_EDGE('',*,*,#280,.F.);
#355=ORIENTED_EDGE('',*,*,#282,.F.);
#356=ORIENTED_EDGE('',*,*,#283,.T.);
#357=ORIENTED_EDGE('',*,*,#284,.F.);
#358=ORIENTED_EDGE('',*,*,#283,.F.);
#359=ORIENTED_EDGE('',*,*,#285,.F.);
#360=ORIENTED_EDGE('',*,*,#286,.T.);
#361=ORIENTED_EDGE('',*,*,#287,.F.);
#362=ORIENTED_EDGE('',*,*,#286,.F.);
#363=ORIENTED_EDGE('',*,*,#288,.F.);
#364=ORIENTED_EDGE('',*,*,#289,.T.);
#365=ORIENTED_EDGE('',*,*,#290,.F.);
#366=ORIENTED_EDGE('',*,*,#289,.F.);
#367=ORIENTED_EDGE('',*,*,#291,.T.);
#368=ORIENTED_EDGE('',*,*,#292,.T.);
#369=ORIENTED_EDGE('',*,*,#293,.F.);
#370=ORIENTED_EDGE('',*,*,#294,.F.);
#371=ORIENTED_EDGE('',*,*,#295,.T.);
#372=ORIENTED_EDGE('',*,*,#294,.T.);
#373=ORIENTED_EDGE('',*,*,#296,.F.);
#374=ORIENTED_EDGE('',*,*,#297,.F.);
#375=ORIENTED_EDGE('',*,*,#298,.T.);
#376=ORIENTED_EDGE('',*,*,#297,.T.);
#377=ORIENTED_EDGE('',*,*,#299,.F.);
#378=ORIENTED_EDGE('',*,*,#300,.F.);
#379=ORIENTED_EDGE('',*,*,#301,.T.);
#380=ORIENTED_EDGE('',*,*,#300,.T.);
#381=ORIENTED_EDGE('',*,*,#302,.F.);
#382=ORIENTED_EDGE('',*,*,#292,.F.);
#383=ORIENTED_EDGE('',*,*,#302,.T.);
#384=ORIENTED_EDGE('',*,*,#299,.T.);
#385=ORIENTED_EDGE('',*,*,#296,.T.);
#386=ORIENTED_EDGE('',*,*,#293,.T.);
#387=ORIENTED_EDGE('',*,*,#258,.T.);
#388=ORIENTED_EDGE('',*,*,#261,.T.);
#389=ORIENTED_EDGE('',*,*,#264,.T.);
#390=ORIENTED_EDGE('',*,*,#267,.T.);
#391=ORIENTED_EDGE('',*,*,#270,.T.);
#392=ORIENTED_EDGE('',*,*,#273,.T.);
#393=ORIENTED_EDGE('',*,*,#276,.T.);
#394=ORIENTED_EDGE('',*,*,#279,.T.);
#395=ORIENTED_EDGE('',*,*,#282,.T.);
#396=ORIENTED_EDGE('',*,*,#285,.T.);
#397=ORIENTED_EDGE('',*,*,#288,.T.);
#398=ORIENTED_EDGE('',*,*,#246,.T.);
#399=ORIENTED_EDGE('',*,*,#250,.T.);
#400=ORIENTED_EDGE('',*,*,#253,.T.);
#401=ORIENTED_EDGE('',*,*,#256,.T.);
#402=ORIENTED_EDGE('',*,*,#301,.F.);
#403=ORIENTED_EDGE('',*,*,#291,.F.);
#404=ORIENTED_EDGE('',*,*,#295,.F.);
#405=ORIENTED_EDGE('',*,*,#298,.F.);
#406=ORIENTED_EDGE('',*,*,#290,.T.);
#407=ORIENTED_EDGE('',*,*,#287,.T.);
#408=ORIENTED_EDGE('',*,*,#284,.T.);
#409=ORIENTED_EDGE('',*,*,#281,.T.);
#410=ORIENTED_EDGE('',*,*,#278,.T.);
#411=ORIENTED_EDGE('',*,*,#275,.T.);
#412=ORIENTED_EDGE('',*,*,#272,.T.);
#413=ORIENTED_EDGE('',*,*,#269,.T.);
#414=ORIENTED_EDGE('',*,*,#266,.T.);
#415=ORIENTED_EDGE('',*,*,#263,.T.);
#416=ORIENTED_EDGE('',*,*,#260,.T.);
#417=PLANE('',#464);
#418=PLANE('',#465);
#419=PLANE('',#466);
#420=PLANE('',#467);
#421=PLANE('',#468);
#422=PLANE('',#502);
#423=PLANE('',#503);
#424=PLANE('',#504);
#425=PLANE('',#505);
#426=PLANE('',#506);
#427=PLANE('',#507);
#428=ADVANCED_FACE('',(#71),#417,.T.);
#429=ADVANCED_FACE('',(#72),#418,.T.);
#430=ADVANCED_FACE('',(#73),#419,.T.);
#431=ADVANCED_FACE('',(#74),#420,.T.);
#432=ADVANCED_FACE('',(#75),#421,.T.);
#433=ADVANCED_FACE('',(#76),#60,.F.);
#434=ADVANCED_FACE('',(#77),#61,.F.);
#435=ADVANCED_FACE('',(#78),#62,.F.);
#436=ADVANCED_FACE('',(#79),#63,.F.);
#437=ADVANCED_FACE('',(#80),#64,.F.);
#438=ADVANCED_FACE('',(#81),#65,.F.);
#439=ADVANCED_FACE('',(#82),#66,.F.);
#440=ADVANCED_FACE('',(#83),#67,.F.);
#441=ADVANCED_FACE('',(#84),#68,.F.);
#442=ADVANCED_FACE('',(#85),#69,.F.);
#443=ADVANCED_FACE('',(#86),#70,.F.);
#444=ADVANCED_FACE('',(#87),#422,.T.);
#445=ADVANCED_FACE('',(#88),#423,.T.);
#446=ADVANCED_FACE('',(#89),#424,.T.);
#447=ADVANCED_FACE('',(#90),#425,.T.);
#448=ADVANCED_FACE('',(#91,#15,#16,#17,#18,#19,#20,#21,#22,#23,#24,#25,
#26),#426,.T.);
#449=ADVANCED_FACE('',(#92,#27,#28,#29,#30,#31,#32,#33,#34,#35,#36,#37),
#427,.F.);
#450=CLOSED_SHELL('',(#428,#429,#430,#431,#432,#433,#434,#435,#436,#437,
#438,#439,#440,#441,#442,#443,#444,#445,#446,#447,#448,#449));
#451=DERIVED_UNIT_ELEMENT(#453,1.);
#452=DERIVED_UNIT_ELEMENT(#756,-3.);
#453=(
MASS_UNIT()
NAMED_UNIT(*)
SI_UNIT(.KILO.,.GRAM.)
);
#454=DERIVED_UNIT((#451,#452));
#455=MEASURE_REPRESENTATION_ITEM('density measure',
POSITIVE_RATIO_MEASURE(7850.),#454);
#456=PROPERTY_DEFINITION_REPRESENTATION(#461,#458);
#457=PROPERTY_DEFINITION_REPRESENTATION(#462,#459);
#458=REPRESENTATION('material name',(#460),#753);
#459=REPRESENTATION('density',(#455),#753);
#460=DESCRIPTIVE_REPRESENTATION_ITEM('Steel','Steel');
#461=PROPERTY_DEFINITION('material property','material name',#763);
#462=PROPERTY_DEFINITION('material property','density of part',#763);
#463=AXIS2_PLACEMENT_3D('',#633,#508,#509);
#464=AXIS2_PLACEMENT_3D('',#634,#510,#511);
#465=AXIS2_PLACEMENT_3D('',#643,#516,#517);
#466=AXIS2_PLACEMENT_3D('',#649,#521,#522);
#467=AXIS2_PLACEMENT_3D('',#655,#526,#527);
#468=AXIS2_PLACEMENT_3D('',#658,#530,#531);
#469=AXIS2_PLACEMENT_3D('',#659,#532,#533);
#470=AXIS2_PLACEMENT_3D('',#661,#534,#535);
#471=AXIS2_PLACEMENT_3D('',#664,#537,#538);
#472=AXIS2_PLACEMENT_3D('',#665,#539,#540);
#473=AXIS2_PLACEMENT_3D('',#667,#541,#542);
#474=AXIS2_PLACEMENT_3D('',#670,#544,#545);
#475=AXIS2_PLACEMENT_3D('',#671,#546,#547);
#476=AXIS2_PLACEMENT_3D('',#673,#548,#549);
#477=AXIS2_PLACEMENT_3D('',#676,#551,#552);
#478=AXIS2_PLACEMENT_3D('',#677,#553,#554);
#479=AXIS2_PLACEMENT_3D('',#679,#555,#556);
#480=AXIS2_PLACEMENT_3D('',#682,#558,#559);
#481=AXIS2_PLACEMENT_3D('',#683,#560,#561);
#482=AXIS2_PLACEMENT_3D('',#685,#562,#563);
#483=AXIS2_PLACEMENT_3D('',#688,#565,#566);
#484=AXIS2_PLACEMENT_3D('',#689,#567,#568);
#485=AXIS2_PLACEMENT_3D('',#691,#569,#570);
#486=AXIS2_PLACEMENT_3D('',#694,#572,#573);
#487=AXIS2_PLACEMENT_3D('',#695,#574,#575);
#488=AXIS2_PLACEMENT_3D('',#697,#576,#577);
#489=AXIS2_PLACEMENT_3D('',#700,#579,#580);
#490=AXIS2_PLACEMENT_3D('',#701,#581,#582);
#491=AXIS2_PLACEMENT_3D('',#703,#583,#584);
#492=AXIS2_PLACEMENT_3D('',#706,#586,#587);
#493=AXIS2_PLACEMENT_3D('',#707,#588,#589);
#494=AXIS2_PLACEMENT_3D('',#709,#590,#591);
#495=AXIS2_PLACEMENT_3D('',#712,#593,#594);
#496=AXIS2_PLACEMENT_3D('',#713,#595,#596);
#497=AXIS2_PLACEMENT_3D('',#715,#597,#598);
#498=AXIS2_PLACEMENT_3D('',#718,#600,#601);
#499=AXIS2_PLACEMENT_3D('',#719,#602,#603);
#500=AXIS2_PLACEMENT_3D('',#721,#604,#605);
#501=AXIS2_PLACEMENT_3D('',#724,#607,#608);
#502=AXIS2_PLACEMENT_3D('',#725,#609,#610);
#503=AXIS2_PLACEMENT_3D('',#734,#615,#616);
#504=AXIS2_PLACEMENT_3D('',#740,#620,#621);
#505=AXIS2_PLACEMENT_3D('',#746,#625,#626);
#506=AXIS2_PLACEMENT_3D('',#749,#629,#630);
#507=AXIS2_PLACEMENT_3D('',#750,#631,#632);
#508=DIRECTION('axis',(0.,0.,1.));
#509=DIRECTION('refdir',(1.,0.,0.));
#510=DIRECTION('center_axis',(-1.,0.,0.));
#511=DIRECTION('ref_axis',(0.,-1.,0.));
#512=DIRECTION('',(0.,1.,0.));
#513=DIRECTION('',(0.,0.,1.));
#514=DIRECTION('',(0.,-1.,0.));
#515=DIRECTION('',(0.,0.,1.));
#516=DIRECTION('center_axis',(0.,1.,0.));
#517=DIRECTION('ref_axis',(-1.,0.,0.));
#518=DIRECTION('',(1.,0.,0.));
#519=DIRECTION('',(-1.,0.,0.));
#520=DIRECTION('',(0.,0.,1.));
#521=DIRECTION('center_axis',(1.,0.,0.));
#522=DIRECTION('ref_axis',(0.,1.,0.));
#523=DIRECTION('',(0.,-1.,0.));
#524=DIRECTION('',(0.,1.,0.));
#525=DIRECTION('',(0.,0.,1.));
#526=DIRECTION('center_axis',(0.,-1.,0.));
#527=DIRECTION('ref_axis',(1.,0.,0.));
#528=DIRECTION('',(-1.,0.,0.));
#529=DIRECTION('',(1.,0.,0.));
#530=DIRECTION('center_axis',(0.,0.,1.));
#531=DIRECTION('ref_axis',(1.,0.,0.));
#532=DIRECTION('center_axis',(0.,0.,-1.));
#533=DIRECTION('ref_axis',(1.,0.,0.));
#534=DIRECTION('center_axis',(0.,0.,-1.));
#535=DIRECTION('ref_axis',(1.,0.,0.));
#536=DIRECTION('',(0.,0.,-1.));
#537=DIRECTION('center_axis',(0.,0.,1.));
#538=DIRECTION('ref_axis',(1.,0.,0.));
#539=DIRECTION('center_axis',(0.,0.,-1.));
#540=DIRECTION('ref_axis',(1.,0.,0.));
#541=DIRECTION('center_axis',(0.,0.,-1.));
#542=DIRECTION('ref_axis',(1.,0.,0.));
#543=DIRECTION('',(0.,0.,-1.));
#544=DIRECTION('center_axis',(0.,0.,1.));
#545=DIRECTION('ref_axis',(1.,0.,0.));
#546=DIRECTION('center_axis',(0.,0.,-1.));
#547=DIRECTION('ref_axis',(1.,0.,0.));
#548=DIRECTION('center_axis',(0.,0.,-1.));
#549=DIRECTION('ref_axis',(1.,0.,0.));
#550=DIRECTION('',(0.,0.,-1.));
#551=DIRECTION('center_axis',(0.,0.,1.));
#552=DIRECTION('ref_axis',(1.,0.,0.));
#553=DIRECTION('center_axis',(0.,0.,-1.));
#554=DIRECTION('ref_axis',(1.,0.,0.));
#555=DIRECTION('center_axis',(0.,0.,-1.));
#556=DIRECTION('ref_axis',(1.,0.,0.));
#557=DIRECTION('',(0.,0.,-1.));
#558=DIRECTION('center_axis',(0.,0.,1.));
#559=DIRECTION('ref_axis',(1.,0.,0.));
#560=DIRECTION('center_axis',(0.,0.,-1.));
#561=DIRECTION('ref_axis',(1.,0.,0.));
#562=DIRECTION('center_axis',(0.,0.,-1.));
#563=DIRECTION('ref_axis',(1.,0.,0.));
#564=DIRECTION('',(0.,0.,-1.));
#565=DIRECTION('center_axis',(0.,0.,1.));
#566=DIRECTION('ref_axis',(1.,0.,0.));
#567=DIRECTION('center_axis',(0.,0.,-1.));
#568=DIRECTION('ref_axis',(1.,0.,0.));
#569=DIRECTION('center_axis',(0.,0.,-1.));
#570=DIRECTION('ref_axis',(1.,0.,0.));
#571=DIRECTION('',(0.,0.,-1.));
#572=DIRECTION('center_axis',(0.,0.,1.));
#573=DIRECTION('ref_axis',(1.,0.,0.));
#574=DIRECTION('center_axis',(0.,0.,-1.));
#575=DIRECTION('ref_axis',(1.,0.,0.));
#576=DIRECTION('center_axis',(0.,0.,-1.));
#577=DIRECTION('ref_axis',(1.,0.,0.));
#578=DIRECTION('',(0.,0.,-1.));
#579=DIRECTION('center_axis',(0.,0.,1.));
#580=DIRECTION('ref_axis',(1.,0.,0.));
#581=DIRECTION('center_axis',(0.,0.,-1.));
#582=DIRECTION('ref_axis',(1.,0.,0.));
#583=DIRECTION('center_axis',(0.,0.,-1.));
#584=DIRECTION('ref_axis',(1.,0.,0.));
#585=DIRECTION('',(0.,0.,-1.));
#586=DIRECTION('center_axis',(0.,0.,1.));
#587=DIRECTION('ref_axis',(1.,0.,0.));
#588=DIRECTION('center_axis',(0.,0.,-1.));
#589=DIRECTION('ref_axis',(1.,0.,0.));
#590=DIRECTION('center_axis',(0.,0.,-1.));
#591=DIRECTION('ref_axis',(1.,0.,0.));
#592=DIRECTION('',(0.,0.,-1.));
#593=DIRECTION('center_axis',(0.,0.,1.));
#594=DIRECTION('ref_axis',(1.,0.,0.));
#595=DIRECTION('center_axis',(0.,0.,-1.));
#596=DIRECTION('ref_axis',(1.,0.,0.));
#597=DIRECTION('center_axis',(0.,0.,-1.));
#598=DIRECTION('ref_axis',(1.,0.,0.));
#599=DIRECTION('',(0.,0.,-1.));
#600=DIRECTION('center_axis',(0.,0.,1.));
#601=DIRECTION('ref_axis',(1.,0.,0.));
#602=DIRECTION('center_axis',(0.,0.,-1.));
#603=DIRECTION('ref_axis',(1.,0.,0.));
#604=DIRECTION('center_axis',(0.,0.,-1.));
#605=DIRECTION('ref_axis',(1.,0.,0.));
#606=DIRECTION('',(0.,0.,-1.));
#607=DIRECTION('center_axis',(0.,0.,1.));
#608=DIRECTION('ref_axis',(1.,0.,0.));
#609=DIRECTION('center_axis',(0.,1.,0.));
#610=DIRECTION('ref_axis',(-1.,0.,0.));
#611=DIRECTION('',(-1.,0.,0.));
#612=DIRECTION('',(0.,0.,1.));
#613=DIRECTION('',(-1.,0.,0.));
#614=DIRECTION('',(0.,0.,1.));
#615=DIRECTION('center_axis',(1.,0.,0.));
#616=DIRECTION('ref_axis',(0.,1.,0.));
#617=DIRECTION('',(0.,1.,0.));
#618=DIRECTION('',(0.,1.,0.));
#619=DIRECTION('',(0.,0.,1.));
#620=DIRECTION('center_axis',(0.,-1.,0.));
#621=DIRECTION('ref_axis',(1.,0.,0.));
#622=DIRECTION('',(1.,0.,0.));
#623=DIRECTION('',(1.,0.,0.));
#624=DIRECTION('',(0.,0.,1.));
#625=DIRECTION('center_axis',(-1.,0.,0.));
#626=DIRECTION('ref_axis',(0.,-1.,0.));
#627=DIRECTION('',(0.,-1.,0.));
#628=DIRECTION('',(0.,-1.,0.));
#629=DIRECTION('center_axis',(0.,0.,1.));
#630=DIRECTION('ref_axis',(1.,0.,0.));
#631=DIRECTION('center_axis',(0.,0.,1.));
#632=DIRECTION('ref_axis',(1.,0.,0.));
#633=CARTESIAN_POINT('',(0.,0.,0.));
#634=CARTESIAN_POINT('Origin',(0.81,34.22,1.));
#635=CARTESIAN_POINT('',(0.81,5.,1.));
#636=CARTESIAN_POINT('',(0.81,34.22,1.));
#637=CARTESIAN_POINT('',(0.81,26.915,1.));
#638=CARTESIAN_POINT('',(0.81,5.,2.));
#639=CARTESIAN_POINT('',(0.81,5.,1.));
#640=CARTESIAN_POINT('',(0.81,34.22,2.));
#641=CARTESIAN_POINT('',(0.81,5.,2.));
#642=CARTESIAN_POINT('',(0.81,34.22,1.));
#643=CARTESIAN_POINT('Origin',(26.89,34.22,1.));
#644=CARTESIAN_POINT('',(26.89,34.22,1.));
#645=CARTESIAN_POINT('',(20.37,34.22,1.));
#646=CARTESIAN_POINT('',(26.89,34.22,2.));
#647=CARTESIAN_POINT('',(0.81,34.22,2.));
#648=CARTESIAN_POINT('',(26.89,34.22,1.));
#649=CARTESIAN_POINT('Origin',(26.89,5.,1.));
#650=CARTESIAN_POINT('',(26.89,5.,1.));
#651=CARTESIAN_POINT('',(26.89,12.305,1.));
#652=CARTESIAN_POINT('',(26.89,5.,2.));
#653=CARTESIAN_POINT('',(26.89,34.22,2.));
#654=CARTESIAN_POINT('',(26.89,5.,1.));
#655=CARTESIAN_POINT('Origin',(0.81,5.,1.));
#656=CARTESIAN_POINT('',(7.33,5.,1.));
#657=CARTESIAN_POINT('',(26.89,5.,2.));
#658=CARTESIAN_POINT('Origin',(13.85,19.61,2.));
#659=CARTESIAN_POINT('Origin',(21.6682484685057,37.95,-4.));
#660=CARTESIAN_POINT('',(21.0332484685057,37.95,1.));
#661=CARTESIAN_POINT('Origin',(21.6682484685057,37.95,1.));
#662=CARTESIAN_POINT('',(21.0332484685057,37.95,0.));
#663=CARTESIAN_POINT('',(21.0332484685057,37.95,-4.));
#664=CARTESIAN_POINT('Origin',(21.6682484685057,37.95,0.));
#665=CARTESIAN_POINT('Origin',(19.1282484685057,37.95,-4.));
#666=CARTESIAN_POINT('',(18.4932484685057,37.95,1.));
#667=CARTESIAN_POINT('Origin',(19.1282484685057,37.95,1.));
#668=CARTESIAN_POINT('',(18.4932484685057,37.95,0.));
#669=CARTESIAN_POINT('',(18.4932484685057,37.95,-4.));
#670=CARTESIAN_POINT('Origin',(19.1282484685057,37.95,0.));
#671=CARTESIAN_POINT('Origin',(16.5882484685057,37.95,-4.));
#672=CARTESIAN_POINT('',(15.9532484685057,37.95,1.));
#673=CARTESIAN_POINT('Origin',(16.5882484685057,37.95,1.));
#674=CARTESIAN_POINT('',(15.9532484685057,37.95,0.));
#675=CARTESIAN_POINT('',(15.9532484685057,37.95,-4.));
#676=CARTESIAN_POINT('Origin',(16.5882484685057,37.95,0.));
#677=CARTESIAN_POINT('Origin',(14.0482484685057,37.95,-4.));
#678=CARTESIAN_POINT('',(13.4132484685057,37.95,1.));
#679=CARTESIAN_POINT('Origin',(14.0482484685057,37.95,1.));
#680=CARTESIAN_POINT('',(13.4132484685057,37.95,0.));
#681=CARTESIAN_POINT('',(13.4132484685057,37.95,-4.));
#682=CARTESIAN_POINT('Origin',(14.0482484685057,37.95,0.));
#683=CARTESIAN_POINT('Origin',(11.5082484685057,37.95,-4.));
#684=CARTESIAN_POINT('',(10.8732484685057,37.95,1.));
#685=CARTESIAN_POINT('Origin',(11.5082484685057,37.95,1.));
#686=CARTESIAN_POINT('',(10.8732484685057,37.95,0.));
#687=CARTESIAN_POINT('',(10.8732484685057,37.95,-4.));
#688=CARTESIAN_POINT('Origin',(11.5082484685057,37.95,0.));
#689=CARTESIAN_POINT('Origin',(8.96824846850568,37.95,-4.));
#690=CARTESIAN_POINT('',(8.33324846850568,37.95,1.));
#691=CARTESIAN_POINT('Origin',(8.96824846850568,37.95,1.));
#692=CARTESIAN_POINT('',(8.33324846850568,37.95,0.));
#693=CARTESIAN_POINT('',(8.33324846850568,37.95,-4.));
#694=CARTESIAN_POINT('Origin',(8.96824846850568,37.95,0.));
#695=CARTESIAN_POINT('Origin',(6.42824846850568,37.95,-4.));
#696=CARTESIAN_POINT('',(5.79324846850568,37.95,1.));
#697=CARTESIAN_POINT('Origin',(6.42824846850568,37.95,1.));
#698=CARTESIAN_POINT('',(5.79324846850568,37.95,0.));
#699=CARTESIAN_POINT('',(5.79324846850568,37.95,-4.));
#700=CARTESIAN_POINT('Origin',(6.42824846850568,37.95,0.));
#701=CARTESIAN_POINT('Origin',(2.5,2.5,-4.));
#702=CARTESIAN_POINT('',(1.5,2.5,1.));
#703=CARTESIAN_POINT('Origin',(2.5,2.5,1.));
#704=CARTESIAN_POINT('',(1.5,2.5,0.));
#705=CARTESIAN_POINT('',(1.5,2.5,-4.));
#706=CARTESIAN_POINT('Origin',(2.5,2.5,0.));
#707=CARTESIAN_POINT('Origin',(2.5,36.72,-4.));
#708=CARTESIAN_POINT('',(1.5,36.72,1.));
#709=CARTESIAN_POINT('Origin',(2.5,36.72,1.));
#710=CARTESIAN_POINT('',(1.5,36.72,0.));
#711=CARTESIAN_POINT('',(1.5,36.72,-4.));
#712=CARTESIAN_POINT('Origin',(2.5,36.72,0.));
#713=CARTESIAN_POINT('Origin',(25.2,36.72,-4.));
#714=CARTESIAN_POINT('',(24.2,36.72,1.));
#715=CARTESIAN_POINT('Origin',(25.2,36.72,1.));
#716=CARTESIAN_POINT('',(24.2,36.72,0.));
#717=CARTESIAN_POINT('',(24.2,36.72,-4.));
#718=CARTESIAN_POINT('Origin',(25.2,36.72,0.));
#719=CARTESIAN_POINT('Origin',(25.2,2.5,-4.));
#720=CARTESIAN_POINT('',(24.2,2.5,1.));
#721=CARTESIAN_POINT('Origin',(25.2,2.5,1.));
#722=CARTESIAN_POINT('',(24.2,2.5,0.));
#723=CARTESIAN_POINT('',(24.2,2.5,-4.));
#724=CARTESIAN_POINT('Origin',(25.2,2.5,0.));
#725=CARTESIAN_POINT('Origin',(27.7,39.22,0.));
#726=CARTESIAN_POINT('',(27.7,39.22,0.));
#727=CARTESIAN_POINT('',(0.,39.22,0.));
#728=CARTESIAN_POINT('',(27.7,39.22,0.));
#729=CARTESIAN_POINT('',(0.,39.22,1.));
#730=CARTESIAN_POINT('',(0.,39.22,0.));
#731=CARTESIAN_POINT('',(27.7,39.22,1.));
#732=CARTESIAN_POINT('',(27.7,39.22,1.));
#733=CARTESIAN_POINT('',(27.7,39.22,0.));
#734=CARTESIAN_POINT('Origin',(27.7,0.,0.));
#735=CARTESIAN_POINT('',(27.7,0.,0.));
#736=CARTESIAN_POINT('',(27.7,0.,0.));
#737=CARTESIAN_POINT('',(27.7,0.,1.));
#738=CARTESIAN_POINT('',(27.7,0.,1.));
#739=CARTESIAN_POINT('',(27.7,0.,0.));
#740=CARTESIAN_POINT('Origin',(0.,0.,0.));
#741=CARTESIAN_POINT('',(0.,0.,0.));
#742=CARTESIAN_POINT('',(0.,0.,0.));
#743=CARTESIAN_POINT('',(0.,0.,1.));
#744=CARTESIAN_POINT('',(0.,0.,1.));
#745=CARTESIAN_POINT('',(0.,0.,0.));
#746=CARTESIAN_POINT('Origin',(0.,39.22,0.));
#747=CARTESIAN_POINT('',(0.,39.22,0.));
#748=CARTESIAN_POINT('',(0.,39.22,1.));
#749=CARTESIAN_POINT('Origin',(13.85,19.61,1.));
#750=CARTESIAN_POINT('Origin',(13.85,19.61,0.));
#751=UNCERTAINTY_MEASURE_WITH_UNIT(LENGTH_MEASURE(0.01),#755,
'DISTANCE_ACCURACY_VALUE',
'Maximum model space distance between geometric entities at asserted c
onnectivities');
#752=UNCERTAINTY_MEASURE_WITH_UNIT(LENGTH_MEASURE(0.01),#755,
'DISTANCE_ACCURACY_VALUE',
'Maximum model space distance between geometric entities at asserted c
onnectivities');
#753=(
GEOMETRIC_REPRESENTATION_CONTEXT(3)
GLOBAL_UNCERTAINTY_ASSIGNED_CONTEXT((#751))
GLOBAL_UNIT_ASSIGNED_CONTEXT((#755,#757,#758))
REPRESENTATION_CONTEXT('','3D')
);
#754=(
GEOMETRIC_REPRESENTATION_CONTEXT(3)
GLOBAL_UNCERTAINTY_ASSIGNED_CONTEXT((#752))
GLOBAL_UNIT_ASSIGNED_CONTEXT((#755,#757,#758))
REPRESENTATION_CONTEXT('','3D')
);
#755=(
LENGTH_UNIT()
NAMED_UNIT(*)
SI_UNIT(.MILLI.,.METRE.)
);
#756=(
LENGTH_UNIT()
NAMED_UNIT(*)
SI_UNIT($,.METRE.)
);
#757=(
NAMED_UNIT(*)
PLANE_ANGLE_UNIT()
SI_UNIT($,.RADIAN.)
);
#758=(
NAMED_UNIT(*)
SI_UNIT($,.STERADIAN.)
SOLID_ANGLE_UNIT()
);
#759=SHAPE_DEFINITION_REPRESENTATION(#760,#761);
#760=PRODUCT_DEFINITION_SHAPE('',$,#763);
#761=SHAPE_REPRESENTATION('',(#463),#753);
#762=PRODUCT_DEFINITION_CONTEXT('part definition',#767,'design');
#763=PRODUCT_DEFINITION('2026-08-26-20-52-54-962','1.3 Inch 1.3"',#764,
#762);
#764=PRODUCT_DEFINITION_FORMATION('',$,#769);
#765=PRODUCT_RELATED_PRODUCT_CATEGORY('1.3 Inch 1.3"','1.3 Inch 1.3"',(#769));
#766=APPLICATION_PROTOCOL_DEFINITION('international standard',
'automotive_design',2009,#767);
#767=APPLICATION_CONTEXT(
'Core Data for Automotive Mechanical Design Process');
#768=PRODUCT_CONTEXT('part definition',#767,'mechanical');
#769=PRODUCT('2026-08-26-20-52-54-962','1.3 Inch 1.3"',$,(#768));
#770=PRESENTATION_STYLE_ASSIGNMENT((#771));
#771=SURFACE_STYLE_USAGE(.BOTH.,#772);
#772=SURFACE_SIDE_STYLE('',(#773));
#773=SURFACE_STYLE_FILL_AREA(#774);
#774=FILL_AREA_STYLE('Steel - Satin',(#775));
#775=FILL_AREA_STYLE_COLOUR('Steel - Satin',#776);
#776=COLOUR_RGB('Steel - Satin',0.627450980392157,0.627450980392157,0.627450980392157);
ENDSEC;
END-ISO-10303-21;
