  0
SECTION
  2
HEADER
  9
$INSUNITS
 70
4
  0
ENDSEC
  0
SECTION
  2
TABLES
  0
TABLE
  2
LTYPE
 70
2
  0
LTYPE
  2
CONTINUOUS
 70
0
 72
65
 73
0
 40
0.0
  0
LTYPE
  2
DASHED
 70
0
 72
65
 73
2
 40
12.0
 49
6.0
 74
0
 49
-6.0
 74
0
  0
ENDTAB
  0
TABLE
  2
LAYER
  0
LAYER
  2
BOARD_OUTLINE
 70
0
 62
7
  6
CONTINUOUS
  0
LAYER
  2
J1
 70
0
 62
1
  6
CONTINUOUS
  0
LAYER
  2
J4
 70
0
 62
2
  6
CONTINUOUS
  0
LAYER
  2
J5
 70
0
 62
3
  6
CONTINUOUS
  0
LAYER
  2
SW10
 70
0
 62
4
  6
CONTINUOUS
  0
LAYER
  2
SW11
 70
0
 62
5
  6
CONTINUOUS
  0
LAYER
  2
SW12
 70
0
 62
6
  6
CONTINUOUS
  0
LAYER
  2
SW13
 70
0
 62
1
  6
CONTINUOUS
  0
LAYER
  2
SW15
 70
0
 62
2
  6
CONTINUOUS
  0
LAYER
  2
SW5
 70
0
 62
3
  6
CONTINUOUS
  0
LAYER
  2
SW6
 70
0
 62
4
  6
CONTINUOUS
  0
LAYER
  2
SW7
 70
0
 62
5
  6
CONTINUOUS
  0
LAYER
  2
SW8
 70
0
 62
6
  6
CONTINUOUS
  0
LAYER
  2
SW9
 70
0
 62
1
  6
CONTINUOUS
  0
LAYER
  2
U1
 70
0
 62
2
  6
CONTINUOUS
  0
ENDTAB
  0
ENDSEC
  0
SECTION
  2
ENTITIES
  0
LINE
  8
BOARD_OUTLINE
  6
CONTINUOUS
 10
0.0000
 20
-0.0000
 30
0.0
 11
90.0000
 21
-0.0000
 31
0.0
  0
LINE
  8
BOARD_OUTLINE
  6
CONTINUOUS
 10
90.0000
 20
-0.0000
 30
0.0
 11
90.0000
 21
-105.0000
 31
0.0
  0
LINE
  8
BOARD_OUTLINE
  6
CONTINUOUS
 10
90.0000
 20
-105.0000
 30
0.0
 11
0.0000
 21
-105.0000
 31
0.0
  0
LINE
  8
BOARD_OUTLINE
  6
CONTINUOUS
 10
0.0000
 20
-105.0000
 30
0.0
 11
0.0000
 21
-0.0000
 31
0.0
  0
TEXT
  8
BOARD_OUTLINE
 10
1.0000
 20
-3.0000
 30
0.0
 40
2.5000
  1
PLACA 90.0x105.0mm
  0
LINE
  8
J1
  6
DASHED
 10
76.1500
 20
-91.6500
 30
0.0
 11
86.9500
 21
-91.6500
 31
0.0
  0
LINE
  8
J1
  6
DASHED
 10
86.9500
 20
-91.6500
 30
0.0
 11
86.9500
 21
-96.7500
 31
0.0
  0
LINE
  8
J1
  6
DASHED
 10
86.9500
 20
-96.7500
 30
0.0
 11
76.1500
 21
-96.7500
 31
0.0
  0
LINE
  8
J1
  6
DASHED
 10
76.1500
 20
-96.7500
 30
0.0
 11
76.1500
 21
-91.6500
 31
0.0
  0
LINE
  8
J1
  6
CONTINUOUS
 10
74.0000
 20
-92.5000
 30
0.0
 11
80.0000
 21
-92.5000
 31
0.0
  0
LINE
  8
J1
  6
CONTINUOUS
 10
77.0000
 20
-89.5000
 30
0.0
 11
77.0000
 21
-95.5000
 31
0.0
  0
TEXT
  8
J1
 10
76.1500
 20
-98.7500
 30
0.0
 40
1.8000
  1
J1 (DORSO)
  0
LINE
  8
J4
  6
DASHED
 10
32.3000
 20
-8.7500
 30
0.0
 11
57.7000
 21
-8.7500
 31
0.0
  0
LINE
  8
J4
  6
DASHED
 10
57.7000
 20
-8.7500
 30
0.0
 11
57.7000
 21
-46.0300
 31
0.0
  0
LINE
  8
J4
  6
DASHED
 10
57.7000
 20
-46.0300
 30
0.0
 11
32.3000
 21
-46.0300
 31
0.0
  0
LINE
  8
J4
  6
DASHED
 10
32.3000
 20
-46.0300
 30
0.0
 11
32.3000
 21
-8.7500
 31
0.0
  0
LINE
  8
J4
  6
CONTINUOUS
 10
34.3800
 20
-9.6000
 30
0.0
 11
40.3800
 21
-9.6000
 31
0.0
  0
LINE
  8
J4
  6
CONTINUOUS
 10
37.3800
 20
-6.6000
 30
0.0
 11
37.3800
 21
-12.6000
 31
0.0
  0
TEXT
  8
J4
 10
32.3000
 20
-48.0300
 30
0.0
 40
1.8000
  1
J4
  0
LINE
  8
J5
  6
DASHED
 10
73.9000
 20
-37.1250
 30
0.0
 11
77.1000
 21
-37.1250
 31
0.0
  0
LINE
  8
J5
  6
DASHED
 10
77.1000
 20
-37.1250
 30
0.0
 11
77.1000
 21
-38.8750
 31
0.0
  0
LINE
  8
J5
  6
DASHED
 10
77.1000
 20
-38.8750
 30
0.0
 11
73.9000
 21
-38.8750
 31
0.0
  0
LINE
  8
J5
  6
DASHED
 10
73.9000
 20
-38.8750
 30
0.0
 11
73.9000
 21
-37.1250
 31
0.0
  0
LINE
  8
J5
  6
CONTINUOUS
 10
71.5000
 20
-38.0000
 30
0.0
 11
77.5000
 21
-38.0000
 31
0.0
  0
LINE
  8
J5
  6
CONTINUOUS
 10
74.5000
 20
-35.0000
 30
0.0
 11
74.5000
 21
-41.0000
 31
0.0
  0
TEXT
  8
J5
 10
73.9000
 20
-40.8750
 30
0.0
 40
1.8000
  1
J5 (DORSO)
  0
LINE
  8
SW10
  6
DASHED
 10
82.5600
 20
-54.4500
 30
0.0
 11
86.9750
 21
-54.4500
 31
0.0
  0
LINE
  8
SW10
  6
DASHED
 10
86.9750
 20
-54.4500
 30
0.0
 11
86.9750
 21
-63.5600
 31
0.0
  0
LINE
  8
SW10
  6
DASHED
 10
86.9750
 20
-63.5600
 30
0.0
 11
82.5600
 21
-63.5600
 31
0.0
  0
LINE
  8
SW10
  6
DASHED
 10
82.5600
 20
-63.5600
 30
0.0
 11
82.5600
 21
-54.4500
 31
0.0
  0
LINE
  8
SW10
  6
CONTINUOUS
 10
83.1000
 20
-56.7500
 30
0.0
 11
89.1000
 21
-56.7500
 31
0.0
  0
LINE
  8
SW10
  6
CONTINUOUS
 10
86.1000
 20
-53.7500
 30
0.0
 11
86.1000
 21
-59.7500
 31
0.0
  0
TEXT
  8
SW10
 10
82.5600
 20
-65.5600
 30
0.0
 40
1.8000
  1
SW10
  0
LINE
  8
SW11
  6
DASHED
 10
28.9500
 20
-56.7000
 30
0.0
 11
36.0500
 21
-56.7000
 31
0.0
  0
LINE
  8
SW11
  6
DASHED
 10
36.0500
 20
-56.7000
 30
0.0
 11
36.0500
 21
-61.3000
 31
0.0
  0
LINE
  8
SW11
  6
DASHED
 10
36.0500
 20
-61.3000
 30
0.0
 11
28.9500
 21
-61.3000
 31
0.0
  0
LINE
  8
SW11
  6
DASHED
 10
28.9500
 20
-61.3000
 30
0.0
 11
28.9500
 21
-56.7000
 31
0.0
  0
LINE
  8
SW11
  6
CONTINUOUS
 10
29.5000
 20
-59.0000
 30
0.0
 11
35.5000
 21
-59.0000
 31
0.0
  0
LINE
  8
SW11
  6
CONTINUOUS
 10
32.5000
 20
-56.0000
 30
0.0
 11
32.5000
 21
-62.0000
 31
0.0
  0
TEXT
  8
SW11
 10
28.9500
 20
-63.3000
 30
0.0
 40
1.8000
  1
SW11
  0
LINE
  8
SW12
  6
DASHED
 10
53.9500
 20
-56.7000
 30
0.0
 11
61.0500
 21
-56.7000
 31
0.0
  0
LINE
  8
SW12
  6
DASHED
 10
61.0500
 20
-56.7000
 30
0.0
 11
61.0500
 21
-61.3000
 31
0.0
  0
LINE
  8
SW12
  6
DASHED
 10
61.0500
 20
-61.3000
 30
0.0
 11
53.9500
 21
-61.3000
 31
0.0
  0
LINE
  8
SW12
  6
DASHED
 10
53.9500
 20
-61.3000
 30
0.0
 11
53.9500
 21
-56.7000
 31
0.0
  0
LINE
  8
SW12
  6
CONTINUOUS
 10
54.5000
 20
-59.0000
 30
0.0
 11
60.5000
 21
-59.0000
 31
0.0
  0
LINE
  8
SW12
  6
CONTINUOUS
 10
57.5000
 20
-56.0000
 30
0.0
 11
57.5000
 21
-62.0000
 31
0.0
  0
TEXT
  8
SW12
 10
53.9500
 20
-63.3000
 30
0.0
 40
1.8000
  1
SW12
  0
LINE
  8
SW13
  6
DASHED
 10
16.2500
 20
-78.7500
 30
0.0
 11
28.7500
 21
-78.7500
 31
0.0
  0
LINE
  8
SW13
  6
DASHED
 10
28.7500
 20
-78.7500
 30
0.0
 11
28.7500
 21
-87.2500
 31
0.0
  0
LINE
  8
SW13
  6
DASHED
 10
28.7500
 20
-87.2500
 30
0.0
 11
16.2500
 21
-87.2500
 31
0.0
  0
LINE
  8
SW13
  6
DASHED
 10
16.2500
 20
-87.2500
 30
0.0
 11
16.2500
 21
-78.7500
 31
0.0
  0
LINE
  8
SW13
  6
CONTINUOUS
 10
19.5000
 20
-83.0000
 30
0.0
 11
25.5000
 21
-83.0000
 31
0.0
  0
LINE
  8
SW13
  6
CONTINUOUS
 10
22.5000
 20
-80.0000
 30
0.0
 11
22.5000
 21
-86.0000
 31
0.0
  0
TEXT
  8
SW13
 10
16.2500
 20
-89.2500
 30
0.0
 40
1.8000
  1
SW13
  0
LINE
  8
SW15
  6
DASHED
 10
2.2000
 20
-32.8500
 30
0.0
 11
4.8000
 21
-32.8500
 31
0.0
  0
LINE
  8
SW15
  6
DASHED
 10
4.8000
 20
-32.8500
 30
0.0
 11
4.8000
 21
-43.1500
 31
0.0
  0
LINE
  8
SW15
  6
DASHED
 10
4.8000
 20
-43.1500
 30
0.0
 11
2.2000
 21
-43.1500
 31
0.0
  0
LINE
  8
SW15
  6
DASHED
 10
2.2000
 20
-43.1500
 30
0.0
 11
2.2000
 21
-32.8500
 31
0.0
  0
LINE
  8
SW15
  6
CONTINUOUS
 10
0.5000
 20
-38.0000
 30
0.0
 11
6.5000
 21
-38.0000
 31
0.0
  0
LINE
  8
SW15
  6
CONTINUOUS
 10
3.5000
 20
-35.0000
 30
0.0
 11
3.5000
 21
-41.0000
 31
0.0
  0
TEXT
  8
SW15
 10
2.2000
 20
-45.1500
 30
0.0
 40
1.8000
  1
SW15
  0
LINE
  8
SW5
  6
DASHED
 10
63.9500
 20
-72.7000
 30
0.0
 11
71.0500
 21
-72.7000
 31
0.0
  0
LINE
  8
SW5
  6
DASHED
 10
71.0500
 20
-72.7000
 30
0.0
 11
71.0500
 21
-77.3000
 31
0.0
  0
LINE
  8
SW5
  6
DASHED
 10
71.0500
 20
-77.3000
 30
0.0
 11
63.9500
 21
-77.3000
 31
0.0
  0
LINE
  8
SW5
  6
DASHED
 10
63.9500
 20
-77.3000
 30
0.0
 11
63.9500
 21
-72.7000
 31
0.0
  0
LINE
  8
SW5
  6
CONTINUOUS
 10
64.5000
 20
-75.0000
 30
0.0
 11
70.5000
 21
-75.0000
 31
0.0
  0
LINE
  8
SW5
  6
CONTINUOUS
 10
67.5000
 20
-72.0000
 30
0.0
 11
67.5000
 21
-78.0000
 31
0.0
  0
TEXT
  8
SW5
 10
63.9500
 20
-79.3000
 30
0.0
 40
1.8000
  1
SW5
  0
LINE
  8
SW6
  6
DASHED
 10
55.9500
 20
-80.7000
 30
0.0
 11
63.0500
 21
-80.7000
 31
0.0
  0
LINE
  8
SW6
  6
DASHED
 10
63.0500
 20
-80.7000
 30
0.0
 11
63.0500
 21
-85.3000
 31
0.0
  0
LINE
  8
SW6
  6
DASHED
 10
63.0500
 20
-85.3000
 30
0.0
 11
55.9500
 21
-85.3000
 31
0.0
  0
LINE
  8
SW6
  6
DASHED
 10
55.9500
 20
-85.3000
 30
0.0
 11
55.9500
 21
-80.7000
 31
0.0
  0
LINE
  8
SW6
  6
CONTINUOUS
 10
56.5000
 20
-83.0000
 30
0.0
 11
62.5000
 21
-83.0000
 31
0.0
  0
LINE
  8
SW6
  6
CONTINUOUS
 10
59.5000
 20
-80.0000
 30
0.0
 11
59.5000
 21
-86.0000
 31
0.0
  0
TEXT
  8
SW6
 10
55.9500
 20
-87.3000
 30
0.0
 40
1.8000
  1
SW6
  0
LINE
  8
SW7
  6
DASHED
 10
71.9500
 20
-80.7000
 30
0.0
 11
79.0500
 21
-80.7000
 31
0.0
  0
LINE
  8
SW7
  6
DASHED
 10
79.0500
 20
-80.7000
 30
0.0
 11
79.0500
 21
-85.3000
 31
0.0
  0
LINE
  8
SW7
  6
DASHED
 10
79.0500
 20
-85.3000
 30
0.0
 11
71.9500
 21
-85.3000
 31
0.0
  0
LINE
  8
SW7
  6
DASHED
 10
71.9500
 20
-85.3000
 30
0.0
 11
71.9500
 21
-80.7000
 31
0.0
  0
LINE
  8
SW7
  6
CONTINUOUS
 10
72.5000
 20
-83.0000
 30
0.0
 11
78.5000
 21
-83.0000
 31
0.0
  0
LINE
  8
SW7
  6
CONTINUOUS
 10
75.5000
 20
-80.0000
 30
0.0
 11
75.5000
 21
-86.0000
 31
0.0
  0
TEXT
  8
SW7
 10
71.9500
 20
-87.3000
 30
0.0
 40
1.8000
  1
SW7
  0
LINE
  8
SW8
  6
DASHED
 10
63.9500
 20
-88.7000
 30
0.0
 11
71.0500
 21
-88.7000
 31
0.0
  0
LINE
  8
SW8
  6
DASHED
 10
71.0500
 20
-88.7000
 30
0.0
 11
71.0500
 21
-93.3000
 31
0.0
  0
LINE
  8
SW8
  6
DASHED
 10
71.0500
 20
-93.3000
 30
0.0
 11
63.9500
 21
-93.3000
 31
0.0
  0
LINE
  8
SW8
  6
DASHED
 10
63.9500
 20
-93.3000
 30
0.0
 11
63.9500
 21
-88.7000
 31
0.0
  0
LINE
  8
SW8
  6
CONTINUOUS
 10
64.5000
 20
-91.0000
 30
0.0
 11
70.5000
 21
-91.0000
 31
0.0
  0
LINE
  8
SW8
  6
CONTINUOUS
 10
67.5000
 20
-88.0000
 30
0.0
 11
67.5000
 21
-94.0000
 31
0.0
  0
TEXT
  8
SW8
 10
63.9500
 20
-95.3000
 30
0.0
 40
1.8000
  1
SW8
  0
LINE
  8
SW9
  6
DASHED
 10
3.0250
 20
-54.4400
 30
0.0
 11
7.4400
 21
-54.4400
 31
0.0
  0
LINE
  8
SW9
  6
DASHED
 10
7.4400
 20
-54.4400
 30
0.0
 11
7.4400
 21
-63.5500
 31
0.0
  0
LINE
  8
SW9
  6
DASHED
 10
7.4400
 20
-63.5500
 30
0.0
 11
3.0250
 21
-63.5500
 31
0.0
  0
LINE
  8
SW9
  6
DASHED
 10
3.0250
 20
-63.5500
 30
0.0
 11
3.0250
 21
-54.4400
 31
0.0
  0
LINE
  8
SW9
  6
CONTINUOUS
 10
0.9000
 20
-61.2500
 30
0.0
 11
6.9000
 21
-61.2500
 31
0.0
  0
LINE
  8
SW9
  6
CONTINUOUS
 10
3.9000
 20
-58.2500
 30
0.0
 11
3.9000
 21
-64.2500
 31
0.0
  0
TEXT
  8
SW9
 10
3.0250
 20
-65.5500
 30
0.0
 40
1.8000
  1
SW9
  0
LINE
  8
U1
  6
DASHED
 10
8.2600
 20
-3.0200
 30
0.0
 11
27.7400
 21
-3.0200
 31
0.0
  0
LINE
  8
U1
  6
DASHED
 10
27.7400
 20
-3.0200
 30
0.0
 11
27.7400
 21
-52.9800
 31
0.0
  0
LINE
  8
U1
  6
DASHED
 10
27.7400
 20
-52.9800
 30
0.0
 11
8.2600
 21
-52.9800
 31
0.0
  0
LINE
  8
U1
  6
DASHED
 10
8.2600
 20
-52.9800
 30
0.0
 11
8.2600
 21
-3.0200
 31
0.0
  0
LINE
  8
U1
  6
CONTINUOUS
 10
15.0000
 20
-28.0000
 30
0.0
 11
21.0000
 21
-28.0000
 31
0.0
  0
LINE
  8
U1
  6
CONTINUOUS
 10
18.0000
 20
-25.0000
 30
0.0
 11
18.0000
 21
-31.0000
 31
0.0
  0
TEXT
  8
U1
 10
8.2600
 20
-54.9800
 30
0.0
 40
1.8000
  1
U1 (DORSO)
  0
ENDSEC
  0
EOF
